<svg width="100" height="100" viewBox="0 0 100 100" fill="none" xmlns="http://www.w3.org/2000/svg">
<circle cx="69" cy="28" r="28" fill="#D1D1D1"/>
<circle cx="63.6801" cy="11.48" r="4.2" fill="#BAB8B8"/>
<circle cx="55" cy="22.4" r="5.6" fill="#BAB8B8"/>
<circle cx="67.8799" cy="22.4" r="3.36" fill="#BAB8B8"/>
<circle cx="25.56" cy="56.44" r="22.56" fill="white"/>
<circle cx="78.2" cy="60.2" r="18.8" fill="white"/>
<circle cx="43.42" cy="37.64" r="22.56" fill="white"/>
<circle cx="65.98" cy="40.46" r="15.98" fill="white"/>
<rect x="25.5601" y="53.62" width="52.64" height="25.38" fill="white"/>
<circle cx="54" cy="88.36" r="4" fill="white"/>
<path d="M57.6799 86.76H50.3199L53.9999 81L57.6799 86.76Z" fill="white"/>
<circle cx="25" cy="93.36" r="4" fill="white"/>
<path d="M28.6799 91.76H21.3199L24.9999 86L28.6799 91.76Z" fill="white"/>
<circle cx="78" cy="95.36" r="4" fill="white"/>
<path d="M81.6799 93.76H74.3199L77.9999 88L81.6799 93.76Z" fill="white"/>
</svg>
