<svg width="100" height="100" viewBox="0 0 100 100" fill="none" xmlns="http://www.w3.org/2000/svg">
<circle cx="37.6157" cy="37.9622" r="19.6157" fill="#919191"/>
<circle cx="83.3858" cy="41.2315" r="16.3465" fill="#919191"/>
<circle cx="53.1449" cy="21.6157" r="19.6157" fill="#919191"/>
<circle cx="72.7606" cy="24.0677" r="13.8945" fill="#919191"/>
<rect x="37.6158" y="35.5102" width="45.7701" height="22.0677" fill="#919191"/>
<circle cx="19.6157" cy="49.5843" r="19.6157" fill="white"/>
<circle cx="65.3858" cy="52.8536" r="16.3465" fill="white"/>
<circle cx="35.1449" cy="33.2378" r="19.6157" fill="white"/>
<circle cx="54.7606" cy="35.6898" r="13.8945" fill="white"/>
<rect x="19.6158" y="47.1323" width="45.7701" height="22.0677" fill="white"/>
<path d="M28 78.8387L34.9767 62H45.4419L38.4651 71.871H53L30.3256 98L38.4651 78.8387H28Z" fill="#FBFF37"/>
<circle cx="15.5" cy="87.96" r="6.5" fill="white"/>
<path d="M21.48 85.36H9.51999L15.5 76L21.48 85.36Z" fill="white"/>
<circle cx="63.5" cy="83.96" r="6.5" fill="white"/>
<path d="M69.48 81.36H57.52L63.5 72L69.48 81.36Z" fill="white"/>
<circle cx="87" cy="72.36" r="4" fill="white"/>
<path d="M90.68 70.76H83.32L87 65L90.68 70.76Z" fill="white"/>
</svg>
