<svg width="100" height="100" viewBox="0 0 100 100" fill="none" xmlns="http://www.w3.org/2000/svg">
<path d="M67.0001 51C67.0001 60.3888 59.3889 68 50.0001 68C40.6112 68 33.0001 60.3888 33.0001 51C33.0001 41.6112 40.6112 34 50.0001 34C59.3889 34 67.0001 41.6112 67.0001 51ZM41.7092 51C41.7092 55.5789 45.4211 59.2909 50.0001 59.2909C54.579 59.2909 58.291 55.5789 58.291 51C58.291 46.4211 54.579 42.7091 50.0001 42.7091C45.4211 42.7091 41.7092 46.4211 41.7092 51Z" fill="white"/>
<rect x="45.6066" y="4" width="8" height="34" rx="4" fill="white"/>
<rect x="62.5563" y="4.3934" width="8" height="22" rx="4" transform="rotate(45 62.5563 4.3934)" fill="white"/>
<rect x="31" y="10.0503" width="8" height="22" rx="4" transform="rotate(-45 31 10.0503)" fill="white"/>
<rect x="53.6066" y="96" width="8" height="34" rx="4" transform="rotate(-180 53.6066 96)" fill="white"/>
<rect x="36.6569" y="95.6066" width="8" height="22" rx="4" transform="rotate(-135 36.6569 95.6066)" fill="white"/>
<rect x="68.2131" y="89.9497" width="8" height="22" rx="4" transform="rotate(135 68.2131 89.9497)" fill="white"/>
<rect x="85.2291" y="21.965" width="8" height="34" rx="4" transform="rotate(55 85.2291 21.965)" fill="white"/>
<rect x="94.6288" y="36.075" width="8" height="22" rx="4" transform="rotate(100 94.6288 36.075)" fill="white"/>
<rect x="71.8951" y="13.4703" width="8" height="22" rx="4" transform="rotate(10 71.8951 13.4703)" fill="white"/>
<rect x="45.6066" y="4" width="8" height="34" rx="4" fill="white"/>
<rect x="62.5563" y="4.3934" width="8" height="22" rx="4" transform="rotate(45 62.5563 4.3934)" fill="white"/>
<rect x="31" y="10.0503" width="8" height="22" rx="4" transform="rotate(-45 31 10.0503)" fill="white"/>
<rect x="45.6066" y="4" width="8" height="34" rx="4" fill="white"/>
<rect x="62.5563" y="4.3934" width="8" height="22" rx="4" transform="rotate(45 62.5563 4.3934)" fill="white"/>
<rect x="31" y="10.0503" width="8" height="22" rx="4" transform="rotate(-45 31 10.0503)" fill="white"/>
<rect x="13.9667" y="78.0198" width="8" height="34" rx="4" transform="rotate(-125 13.9667 78.0198)" fill="white"/>
<rect x="4.56683" y="63.9098" width="8" height="22" rx="4" transform="rotate(-80 4.56683 63.9098)" fill="white"/>
<rect x="27.3006" y="86.5145" width="8" height="22" rx="4" transform="rotate(-170 27.3006 86.5145)" fill="white"/>
<rect x="89.8179" y="71.4666" width="8" height="34" rx="4" transform="rotate(125 89.8179 71.4666)" fill="white"/>
<rect x="79.7736" y="85.1253" width="8" height="22" rx="4" transform="rotate(170 79.7736 85.1253)" fill="white"/>
<rect x="93.2397" y="56.0313" width="8" height="22" rx="4" transform="rotate(80 93.2397 56.0313)" fill="white"/>
<rect x="9.37793" y="30.5182" width="8" height="34" rx="4" transform="rotate(-55 9.37793 30.5182)" fill="white"/>
<rect x="19.4222" y="16.8595" width="8" height="22" rx="4" transform="rotate(-10 19.4222 16.8595)" fill="white"/>
<rect x="5.95599" y="45.9535" width="8" height="22" rx="4" transform="rotate(-100 5.95599 45.9535)" fill="white"/>
</svg>
