<svg width="100" height="100" viewBox="0 0 100 100" fill="none" xmlns="http://www.w3.org/2000/svg">
<circle cx="24" cy="44" r="24" fill="white"/>
<circle cx="80" cy="48" r="20" fill="white"/>
<circle cx="43.0001" cy="24" r="24" fill="white"/>
<circle cx="67" cy="27" r="17" fill="white"/>
<rect x="24" y="41" width="56" height="27" fill="white"/>
<rect y="73" width="42" height="5" rx="2.5" fill="white"/>
<rect x="45" y="73" width="14" height="5" rx="2.5" fill="white"/>
<rect x="62" y="73" width="31" height="5" rx="2.5" fill="white"/>
<rect y="83" width="19" height="5" rx="2.5" fill="white" fill-opacity="0.5"/>
<rect x="13" y="93" width="49" height="5" rx="2.5" fill="white" fill-opacity="0.3"/>
<rect x="65" y="93" width="35" height="5" rx="2.5" fill="white" fill-opacity="0.3"/>
<rect x="22" y="83" width="19" height="5" rx="2.5" fill="white" fill-opacity="0.5"/>
<rect x="44" y="83" width="38" height="5" rx="2.5" fill="white" fill-opacity="0.5"/>
<rect x="85" y="83" width="15" height="5" rx="2.5" fill="white" fill-opacity="0.5"/>
</svg>
